{
  "asset": {
    "version": "2.0",
    "generator": "THREE.GLTFExporter"
  },
  "scenes": [
    {
      "name": "Scene",
      "nodes": [
        6
      ]
    }
  ],
  "scene": 0,
  "nodes": [
    {
      "name": "Cubo_1",
      "extras": {
        "name": "Cubo"
      },
      "mesh": 0
    },
    {
      "matrix": [
        1,
        0,
        0,
        0,
        0,
        1,
        0,
        0,
        0,
        0,
        1,
        0,
        0,
        3.81153,
        1.00575,
        1
      ],
      "name": "Cubo",
      "extras": {
        "name": "Cubo"
      },
      "children": [
        0
      ]
    },
    {
      "name": "Cubo001_1",
      "extras": {
        "name": "Cubo.001"
      },
      "mesh": 1
    },
    {
      "matrix": [
        0.09340000000000002,
        0,
        0,
        0,
        0,
        0.09340000000000002,
        0,
        0,
        0,
        0,
        0.09340000000000002,
        0,
        -10.872330000000002,
        -0.75636,
        -1.0959699999999999,
        1
      ],
      "name": "Cubo001",
      "extras": {
        "name": "Cubo.001"
      },
      "children": [
        2
      ]
    },
    {
      "name": "Root",
      "extras": {
        "name": "Root"
      },
      "children": [
        1,
        3
      ]
    },
    {
      "matrix": [
        1,
        0,
        0,
        0,
        0,
        2.220446049250313e-16,
        -1,
        0,
        0,
        1,
        2.220446049250313e-16,
        0,
        0,
        0,
        0,
        1
      ],
      "name": "Sketchfab_model",
      "extras": {
        "name": "Sketchfab_model"
      },
      "children": [
        4
      ]
    },
    {
      "matrix": [
        50,
        0,
        0,
        0,
        0,
        50,
        0,
        0,
        0,
        0,
        50,
        0,
        0,
        50,
        -500,
        1
      ],
      "name": "arquibancada.glb",
      "children": [
        5
      ]
    }
  ],
  "bufferViews": [
    {
      "buffer": 0,
      "byteOffset": 0,
      "byteLength": 1080,
      "target": 34962,
      "byteStride": 12
    },
    {
      "buffer": 0,
      "byteOffset": 1080,
      "byteLength": 1080,
      "target": 34962,
      "byteStride": 12
    },
    {
      "buffer": 0,
      "byteOffset": 2160,
      "byteLength": 864,
      "target": 34963
    },
    {
      "buffer": 0,
      "byteOffset": 3024,
      "byteLength": 41268,
      "target": 34962,
      "byteStride": 12
    },
    {
      "buffer": 0,
      "byteOffset": 44292,
      "byteLength": 41268,
      "target": 34962,
      "byteStride": 12
    },
    {
      "buffer": 0,
      "byteOffset": 85560,
      "byteLength": 26208,
      "target": 34963
    }
  ],
  "buffers": [
    {
      "byteLength": 111768,
      "uri": "data:application/octet-stream;base64,"
    }
  ],
  "accessors": [
    {
      "bufferView": 0,
      "componentType": 5126,
      "count": 90,
      "max": [
        1,
        1,
        1
      ],
      "min": [
        -1,
        -1,
        -1
      ],
      "type": "VEC3"
    },
    {
      "bufferView": 1,
      "componentType": 5126,
      "count": 90,
      "max": [
        10.965740203857422,
        1,
        1
      ],
      "min": [
        -10.965740203857422,
        -4.474490165710449,
        -2.1999800205230713
      ],
      "type": "VEC3"
    },
    {
      "bufferView": 2,
      "componentType": 5125,
      "count": 216,
      "max": [
        89
      ],
      "min": [
        0
      ],
      "type": "SCALAR"
    },
    {
      "bufferView": 3,
      "componentType": 5126,
      "count": 3439,
      "max": [
        0.9936299920082092,
        0.9932141900062561,
        0.991169273853302
      ],
      "min": [
        -0.9935792684555054,
        -0.9932141900062561,
        -1
      ],
      "type": "VEC3"
    },
    {
      "bufferView": 4,
      "componentType": 5126,
      "count": 3439,
      "max": [
        233.80604553222656,
        59.58325958251953,
        53.96567153930664
      ],
      "min": [
        -1,
        -1,
        -1
      ],
      "type": "VEC3"
    },
    {
      "bufferView": 5,
      "componentType": 5125,
      "count": 6552,
      "max": [
        3438
      ],
      "min": [
        0
      ],
      "type": "SCALAR"
    }
  ],
  "materials": [
    {
      "pbrMetallicRoughness": {
        "baseColorFactor": [
          0.4980392156862745,
          0.4980392156862745,
          0.4980392156862745,
          1
        ],
        "metallicFactor": 0.5,
        "roughnessFactor": 0.6
      },
      "emissiveFactor": [
        0.4980392156862745,
        0.4980392156862745,
        0.4980392156862745
      ],
      "doubleSided": true,
      "name": "Scene_-_Root"
    }
  ],
  "meshes": [
    {
      "primitives": [
        {
          "mode": 4,
          "attributes": {
            "NORMAL": 0,
            "POSITION": 1
          },
          "indices": 2,
          "material": 0
        }
      ]
    },
    {
      "primitives": [
        {
          "mode": 4,
          "attributes": {
            "NORMAL": 3,
            "POSITION": 4
          },
          "indices": 5,
          "material": 0
        }
      ]
    }
  ]
}